<svg viewBox="-92.16 -92.16 1208.32 1208.32" xmlns="http://www.w3.org/2000/svg" fill="#ffff"
    stroke="#ffff" stroke-width="0.01024">
    <g id="SVGRepo_bgCarrier" stroke-width="0">
        <rect x="-92.16" y="-92.16" width="1208.32" height="1208.32" rx="604.16" fill="#C70039"
            strokewidth="0"></rect>
    </g>
    <g id="SVGRepo_tracerCarrier" stroke-linecap="round" stroke-linejoin="round"></g>
    <g id="SVGRepo_iconCarrier">
        <path fill="#ffffff"
            d="M160 256H96a32 32 0 0 1 0-64h256V95.936a32 32 0 0 1 32-32h256a32 32 0 0 1 32 32V192h256a32 32 0 1 1 0 64h-64v672a32 32 0 0 1-32 32H192a32 32 0 0 1-32-32V256zm448-64v-64H416v64h192zM224 896h576V256H224v640zm192-128a32 32 0 0 1-32-32V416a32 32 0 0 1 64 0v320a32 32 0 0 1-32 32zm192 0a32 32 0 0 1-32-32V416a32 32 0 0 1 64 0v320a32 32 0 0 1-32 32z"></path>
    </g>
</svg>