<!--?xml version="1.0" standalone="no"?-->
            <svg id="sw-js-blob-svg" viewBox="0 0 100 100" xmlns="http://www.w3.org/2000/svg" version="1.1">
            <defs>
                <linearGradient id="sw-gradient" x1="0" x2="1" y1="1" y2="0">
                    <stop id="stop1" stop-color="rgba(166, 174, 221, 1)" offset="0%"></stop>
                    <stop id="stop2" stop-color="rgba(0, 34, 232, 1)" offset="100%"></stop>
                </linearGradient>
            </defs>
            <path fill="none" d="M10.4,-15.9C13.4,-12.2,15.8,-9,21.6,-4C27.5,1.1,36.8,8,36.1,12.1C35.3,16.2,24.5,17.5,16.8,22.3C9.1,27,4.5,35.3,-2,38.1C-8.6,40.9,-17.2,38.2,-25,33.4C-32.8,28.7,-39.8,21.9,-40.2,14.5C-40.6,7.1,-34.4,-1,-28.3,-5.9C-22.2,-10.8,-16.2,-12.4,-11.5,-15.7C-6.8,-18.9,-3.4,-23.8,0.1,-24C3.7,-24.1,7.4,-19.7,10.4,-15.9Z" width="100%" height="100%" transform="translate(50 50)" stroke-width="1" style="transition: 0.3s;" stroke="url(#sw-gradient)"></path>
        </svg>