<?xml version="1.0" standalone="no"?>
<svg xmlns:xlink="http://www.w3.org/1999/xlink" id="wave" style="transform:rotate(180deg); transition: 0.3s" viewBox="0 0 1440 290" version="1.1" xmlns="http://www.w3.org/2000/svg"><defs><linearGradient id="sw-gradient-0" x1="0" x2="0" y1="1" y2="0"><stop stop-color="rgba(214.005, 214.005, 214.005, 0.41)" offset="0%"/><stop stop-color="rgba(255, 255, 255, 0.53)" offset="100%"/></linearGradient></defs><path style="transform:translate(0, 0px); opacity:1" fill="url(#sw-gradient-0)" d="M0,0L26.7,4.8C53.3,10,107,19,160,24.2C213.3,29,267,29,320,29C373.3,29,427,29,480,43.5C533.3,58,587,87,640,82.2C693.3,77,747,39,800,48.3C853.3,58,907,116,960,130.5C1013.3,145,1067,116,1120,120.8C1173.3,126,1227,164,1280,178.8C1333.3,193,1387,184,1440,154.7C1493.3,126,1547,77,1600,87C1653.3,97,1707,164,1760,164.3C1813.3,164,1867,97,1920,58C1973.3,19,2027,10,2080,24.2C2133.3,39,2187,77,2240,77.3C2293.3,77,2347,39,2400,62.8C2453.3,87,2507,174,2560,193.3C2613.3,213,2667,164,2720,154.7C2773.3,145,2827,174,2880,193.3C2933.3,213,2987,222,3040,232C3093.3,242,3147,251,3200,212.7C3253.3,174,3307,87,3360,77.3C3413.3,68,3467,135,3520,140.2C3573.3,145,3627,87,3680,62.8C3733.3,39,3787,48,3813,53.2L3840,58L3840,290L3813.3,290C3786.7,290,3733,290,3680,290C3626.7,290,3573,290,3520,290C3466.7,290,3413,290,3360,290C3306.7,290,3253,290,3200,290C3146.7,290,3093,290,3040,290C2986.7,290,2933,290,2880,290C2826.7,290,2773,290,2720,290C2666.7,290,2613,290,2560,290C2506.7,290,2453,290,2400,290C2346.7,290,2293,290,2240,290C2186.7,290,2133,290,2080,290C2026.7,290,1973,290,1920,290C1866.7,290,1813,290,1760,290C1706.7,290,1653,290,1600,290C1546.7,290,1493,290,1440,290C1386.7,290,1333,290,1280,290C1226.7,290,1173,290,1120,290C1066.7,290,1013,290,960,290C906.7,290,853,290,800,290C746.7,290,693,290,640,290C586.7,290,533,290,480,290C426.7,290,373,290,320,290C266.7,290,213,290,160,290C106.7,290,53,290,27,290L0,290Z"/><defs><linearGradient id="sw-gradient-1" x1="0" x2="0" y1="1" y2="0"><stop stop-color="rgba(166, 174, 221, 0.46)" offset="0%"/><stop stop-color="rgba(206.997, 209.192, 221.973, 0.6)" offset="100%"/></linearGradient></defs><path style="transform:translate(0, 50px); opacity:0.9" fill="url(#sw-gradient-1)" d="M0,145L26.7,159.5C53.3,174,107,203,160,217.5C213.3,232,267,232,320,222.3C373.3,213,427,193,480,154.7C533.3,116,587,58,640,43.5C693.3,29,747,58,800,77.3C853.3,97,907,106,960,135.3C1013.3,164,1067,213,1120,203C1173.3,193,1227,126,1280,101.5C1333.3,77,1387,97,1440,125.7C1493.3,155,1547,193,1600,178.8C1653.3,164,1707,97,1760,91.8C1813.3,87,1867,145,1920,154.7C1973.3,164,2027,126,2080,135.3C2133.3,145,2187,203,2240,207.8C2293.3,213,2347,164,2400,130.5C2453.3,97,2507,77,2560,82.2C2613.3,87,2667,116,2720,149.8C2773.3,184,2827,222,2880,222.3C2933.3,222,2987,184,3040,140.2C3093.3,97,3147,48,3200,43.5C3253.3,39,3307,77,3360,111.2C3413.3,145,3467,174,3520,198.2C3573.3,222,3627,242,3680,207.8C3733.3,174,3787,87,3813,43.5L3840,0L3840,290L3813.3,290C3786.7,290,3733,290,3680,290C3626.7,290,3573,290,3520,290C3466.7,290,3413,290,3360,290C3306.7,290,3253,290,3200,290C3146.7,290,3093,290,3040,290C2986.7,290,2933,290,2880,290C2826.7,290,2773,290,2720,290C2666.7,290,2613,290,2560,290C2506.7,290,2453,290,2400,290C2346.7,290,2293,290,2240,290C2186.7,290,2133,290,2080,290C2026.7,290,1973,290,1920,290C1866.7,290,1813,290,1760,290C1706.7,290,1653,290,1600,290C1546.7,290,1493,290,1440,290C1386.7,290,1333,290,1280,290C1226.7,290,1173,290,1120,290C1066.7,290,1013,290,960,290C906.7,290,853,290,800,290C746.7,290,693,290,640,290C586.7,290,533,290,480,290C426.7,290,373,290,320,290C266.7,290,213,290,160,290C106.7,290,53,290,27,290L0,290Z"/><defs><linearGradient id="sw-gradient-2" x1="0" x2="0" y1="1" y2="0"><stop stop-color="rgba(217.432, 219.541, 231.934, 0.47)" offset="0%"/><stop stop-color="rgba(221.973, 221.973, 221.973, 0.46)" offset="100%"/></linearGradient></defs><path style="transform:translate(0, 100px); opacity:0.8" fill="url(#sw-gradient-2)" d="M0,87L26.7,77.3C53.3,68,107,48,160,48.3C213.3,48,267,68,320,87C373.3,106,427,126,480,111.2C533.3,97,587,48,640,43.5C693.3,39,747,77,800,101.5C853.3,126,907,135,960,120.8C1013.3,106,1067,68,1120,77.3C1173.3,87,1227,145,1280,149.8C1333.3,155,1387,106,1440,101.5C1493.3,97,1547,135,1600,145C1653.3,155,1707,135,1760,149.8C1813.3,164,1867,213,1920,193.3C1973.3,174,2027,87,2080,67.7C2133.3,48,2187,97,2240,130.5C2293.3,164,2347,184,2400,178.8C2453.3,174,2507,145,2560,120.8C2613.3,97,2667,77,2720,67.7C2773.3,58,2827,58,2880,77.3C2933.3,97,2987,135,3040,130.5C3093.3,126,3147,77,3200,67.7C3253.3,58,3307,87,3360,111.2C3413.3,135,3467,155,3520,174C3573.3,193,3627,213,3680,188.5C3733.3,164,3787,97,3813,62.8L3840,29L3840,290L3813.3,290C3786.7,290,3733,290,3680,290C3626.7,290,3573,290,3520,290C3466.7,290,3413,290,3360,290C3306.7,290,3253,290,3200,290C3146.7,290,3093,290,3040,290C2986.7,290,2933,290,2880,290C2826.7,290,2773,290,2720,290C2666.7,290,2613,290,2560,290C2506.7,290,2453,290,2400,290C2346.7,290,2293,290,2240,290C2186.7,290,2133,290,2080,290C2026.7,290,1973,290,1920,290C1866.7,290,1813,290,1760,290C1706.7,290,1653,290,1600,290C1546.7,290,1493,290,1440,290C1386.7,290,1333,290,1280,290C1226.7,290,1173,290,1120,290C1066.7,290,1013,290,960,290C906.7,290,853,290,800,290C746.7,290,693,290,640,290C586.7,290,533,290,480,290C426.7,290,373,290,320,290C266.7,290,213,290,160,290C106.7,290,53,290,27,290L0,290Z"/></svg>